<svg class="rich-terminal" viewBox="0 0 1726 1026.0" xmlns="http://www.w3.org/2000/svg">
    <!-- Generated with Rich https://www.textualize.io -->
    <style>

    @font-face {
        font-family: "Fira Code";
        src: local("FiraCode-Regular"),
                url("https://cdnjs.cloudflare.com/ajax/libs/firacode/6.2.0/woff2/FiraCode-Regular.woff2") format("woff2"),
                url("https://cdnjs.cloudflare.com/ajax/libs/firacode/6.2.0/woff/FiraCode-Regular.woff") format("woff");
        font-style: normal;
        font-weight: 400;
    }
    @font-face {
        font-family: "Fira Code";
        src: local("FiraCode-Bold"),
                url("https://cdnjs.cloudflare.com/ajax/libs/firacode/6.2.0/woff2/FiraCode-Bold.woff2") format("woff2"),
                url("https://cdnjs.cloudflare.com/ajax/libs/firacode/6.2.0/woff/FiraCode-Bold.woff") format("woff");
        font-style: bold;
        font-weight: 700;
    }

    .terminal-1695329350-matrix {
        font-family: Fira Code, monospace;
        font-size: 20px;
        line-height: 24.4px;
        font-variant-east-asian: full-width;
    }

    .terminal-1695329350-title {
        font-size: 18px;
        font-weight: bold;
        font-family: arial;
    }

    .terminal-1695329350-r1 { fill: #c5c8c6 }
.terminal-1695329350-r2 { fill: #e0e0e0 }
.terminal-1695329350-r3 { fill: #ffffff;font-weight: bold }
.terminal-1695329350-r4 { fill: #008000;font-weight: bold }
.terminal-1695329350-r5 { fill: #999999 }
.terminal-1695329350-r6 { fill: #00ffff;font-weight: bold }
.terminal-1695329350-r7 { fill: #e0e0e0;font-weight: bold;text-decoration: underline; }
.terminal-1695329350-r8 { fill: #ff0000 }
.terminal-1695329350-r9 { fill: #e0e0e0;font-weight: bold }
.terminal-1695329350-r10 { fill: #008000 }
.terminal-1695329350-r11 { fill: #ffa62b;font-weight: bold }
.terminal-1695329350-r12 { fill: #495259 }
    </style>

    <defs>
    <clipPath id="terminal-1695329350-clip-terminal">
      <rect x="0" y="0" width="1707.0" height="975.0" />
    </clipPath>
    <clipPath id="terminal-1695329350-line-0">
    <rect x="0" y="1.5" width="1708" height="24.65"/>
            </clipPath>
<clipPath id="terminal-1695329350-line-1">
    <rect x="0" y="25.9" width="1708" height="24.65"/>
            </clipPath>
<clipPath id="terminal-1695329350-line-2">
    <rect x="0" y="50.3" width="1708" height="24.65"/>
            </clipPath>
<clipPath id="terminal-1695329350-line-3">
    <rect x="0" y="74.7" width="1708" height="24.65"/>
            </clipPath>
<clipPath id="terminal-1695329350-line-4">
    <rect x="0" y="99.1" width="1708" height="24.65"/>
            </clipPath>
<clipPath id="terminal-1695329350-line-5">
    <rect x="0" y="123.5" width="1708" height="24.65"/>
            </clipPath>
<clipPath id="terminal-1695329350-line-6">
    <rect x="0" y="147.9" width="1708" height="24.65"/>
            </clipPath>
<clipPath id="terminal-1695329350-line-7">
    <rect x="0" y="172.3" width="1708" height="24.65"/>
            </clipPath>
<clipPath id="terminal-1695329350-line-8">
    <rect x="0" y="196.7" width="1708" height="24.65"/>
            </clipPath>
<clipPath id="terminal-1695329350-line-9">
    <rect x="0" y="221.1" width="1708" height="24.65"/>
            </clipPath>
<clipPath id="terminal-1695329350-line-10">
    <rect x="0" y="245.5" width="1708" height="24.65"/>
            </clipPath>
<clipPath id="terminal-1695329350-line-11">
    <rect x="0" y="269.9" width="1708" height="24.65"/>
            </clipPath>
<clipPath id="terminal-1695329350-line-12">
    <rect x="0" y="294.3" width="1708" height="24.65"/>
            </clipPath>
<clipPath id="terminal-1695329350-line-13">
    <rect x="0" y="318.7" width="1708" height="24.65"/>
            </clipPath>
<clipPath id="terminal-1695329350-line-14">
    <rect x="0" y="343.1" width="1708" height="24.65"/>
            </clipPath>
<clipPath id="terminal-1695329350-line-15">
    <rect x="0" y="367.5" width="1708" height="24.65"/>
            </clipPath>
<clipPath id="terminal-1695329350-line-16">
    <rect x="0" y="391.9" width="1708" height="24.65"/>
            </clipPath>
<clipPath id="terminal-1695329350-line-17">
    <rect x="0" y="416.3" width="1708" height="24.65"/>
            </clipPath>
<clipPath id="terminal-1695329350-line-18">
    <rect x="0" y="440.7" width="1708" height="24.65"/>
            </clipPath>
<clipPath id="terminal-1695329350-line-19">
    <rect x="0" y="465.1" width="1708" height="24.65"/>
            </clipPath>
<clipPath id="terminal-1695329350-line-20">
    <rect x="0" y="489.5" width="1708" height="24.65"/>
            </clipPath>
<clipPath id="terminal-1695329350-line-21">
    <rect x="0" y="513.9" width="1708" height="24.65"/>
            </clipPath>
<clipPath id="terminal-1695329350-line-22">
    <rect x="0" y="538.3" width="1708" height="24.65"/>
            </clipPath>
<clipPath id="terminal-1695329350-line-23">
    <rect x="0" y="562.7" width="1708" height="24.65"/>
            </clipPath>
<clipPath id="terminal-1695329350-line-24">
    <rect x="0" y="587.1" width="1708" height="24.65"/>
            </clipPath>
<clipPath id="terminal-1695329350-line-25">
    <rect x="0" y="611.5" width="1708" height="24.65"/>
            </clipPath>
<clipPath id="terminal-1695329350-line-26">
    <rect x="0" y="635.9" width="1708" height="24.65"/>
            </clipPath>
<clipPath id="terminal-1695329350-line-27">
    <rect x="0" y="660.3" width="1708" height="24.65"/>
            </clipPath>
<clipPath id="terminal-1695329350-line-28">
    <rect x="0" y="684.7" width="1708" height="24.65"/>
            </clipPath>
<clipPath id="terminal-1695329350-line-29">
    <rect x="0" y="709.1" width="1708" height="24.65"/>
            </clipPath>
<clipPath id="terminal-1695329350-line-30">
    <rect x="0" y="733.5" width="1708" height="24.65"/>
            </clipPath>
<clipPath id="terminal-1695329350-line-31">
    <rect x="0" y="757.9" width="1708" height="24.65"/>
            </clipPath>
<clipPath id="terminal-1695329350-line-32">
    <rect x="0" y="782.3" width="1708" height="24.65"/>
            </clipPath>
<clipPath id="terminal-1695329350-line-33">
    <rect x="0" y="806.7" width="1708" height="24.65"/>
            </clipPath>
<clipPath id="terminal-1695329350-line-34">
    <rect x="0" y="831.1" width="1708" height="24.65"/>
            </clipPath>
<clipPath id="terminal-1695329350-line-35">
    <rect x="0" y="855.5" width="1708" height="24.65"/>
            </clipPath>
<clipPath id="terminal-1695329350-line-36">
    <rect x="0" y="879.9" width="1708" height="24.65"/>
            </clipPath>
<clipPath id="terminal-1695329350-line-37">
    <rect x="0" y="904.3" width="1708" height="24.65"/>
            </clipPath>
<clipPath id="terminal-1695329350-line-38">
    <rect x="0" y="928.7" width="1708" height="24.65"/>
            </clipPath>
    </defs>

    <rect fill="#292929" stroke="rgba(255,255,255,0.35)" stroke-width="1" x="1" y="1" width="1724" height="1024" rx="8"/><text class="terminal-1695329350-title" fill="#c5c8c6" text-anchor="middle" x="862" y="27">Public&#160;Alpha&#160;—&#160;Scanner</text>
            <g transform="translate(26,22)">
            <circle cx="0" cy="0" r="7" fill="#ff5f57"/>
            <circle cx="22" cy="0" r="7" fill="#febc2e"/>
            <circle cx="44" cy="0" r="7" fill="#28c840"/>
            </g>
        
    <g transform="translate(9, 41)" clip-path="url(#terminal-1695329350-clip-terminal)">
    <rect fill="#242f38" x="0" y="1.5" width="12.2" height="24.65" shape-rendering="crispEdges"/><rect fill="#242f38" x="12.2" y="1.5" width="12.2" height="24.65" shape-rendering="crispEdges"/><rect fill="#242f38" x="24.4" y="1.5" width="61" height="24.65" shape-rendering="crispEdges"/><rect fill="#242f38" x="85.4" y="1.5" width="12.2" height="24.65" shape-rendering="crispEdges"/><rect fill="#242f38" x="97.6" y="1.5" width="610" height="24.65" shape-rendering="crispEdges"/><rect fill="#242f38" x="707.6" y="1.5" width="268.4" height="24.65" shape-rendering="crispEdges"/><rect fill="#242f38" x="976" y="1.5" width="610" height="24.65" shape-rendering="crispEdges"/><rect fill="#242f38" x="1586" y="1.5" width="12.2" height="24.65" shape-rendering="crispEdges"/><rect fill="#242f38" x="1598.2" y="1.5" width="0" height="24.65" shape-rendering="crispEdges"/><rect fill="#242f38" x="1598.2" y="1.5" width="97.6" height="24.65" shape-rendering="crispEdges"/><rect fill="#242f38" x="1695.8" y="1.5" width="12.2" height="24.65" shape-rendering="crispEdges"/><rect fill="#121212" x="0" y="25.9" width="24.4" height="24.65" shape-rendering="crispEdges"/><rect fill="#121212" x="24.4" y="25.9" width="48.8" height="24.65" shape-rendering="crispEdges"/><rect fill="#121212" x="73.2" y="25.9" width="36.6" height="24.65" shape-rendering="crispEdges"/><rect fill="#121212" x="109.8" y="25.9" width="85.4" height="24.65" shape-rendering="crispEdges"/><rect fill="#121212" x="195.2" y="25.9" width="36.6" height="24.65" shape-rendering="crispEdges"/><rect fill="#121212" x="231.8" y="25.9" width="231.8" height="24.65" shape-rendering="crispEdges"/><rect fill="#121212" x="463.6" y="25.9" width="36.6" height="24.65" shape-rendering="crispEdges"/><rect fill="#121212" x="500.2" y="25.9" width="207.4" height="24.65" shape-rendering="crispEdges"/><rect fill="#121212" x="707.6" y="25.9" width="1000.4" height="24.65" shape-rendering="crispEdges"/><rect fill="#121212" x="0" y="50.3" width="0" height="24.65" shape-rendering="crispEdges"/><rect fill="#121212" x="0" y="50.3" width="1708" height="24.65" shape-rendering="crispEdges"/><rect fill="#121212" x="0" y="74.7" width="61" height="24.65" shape-rendering="crispEdges"/><rect fill="#121212" x="61" y="74.7" width="1647" height="24.65" shape-rendering="crispEdges"/><rect fill="#121212" x="0" y="99.1" width="695.4" height="24.65" shape-rendering="crispEdges"/><rect fill="#121212" x="695.4" y="99.1" width="1012.6" height="24.65" shape-rendering="crispEdges"/><rect fill="#121212" x="0" y="123.5" width="707.6" height="24.65" shape-rendering="crispEdges"/><rect fill="#121212" x="707.6" y="123.5" width="1000.4" height="24.65" shape-rendering="crispEdges"/><rect fill="#121212" x="0" y="147.9" width="280.6" height="24.65" shape-rendering="crispEdges"/><rect fill="#121212" x="280.6" y="147.9" width="1427.4" height="24.65" shape-rendering="crispEdges"/><rect fill="#121212" x="0" y="172.3" width="0" height="24.65" shape-rendering="crispEdges"/><rect fill="#121212" x="0" y="172.3" width="1708" height="24.65" shape-rendering="crispEdges"/><rect fill="#121212" x="0" y="196.7" width="170.8" height="24.65" shape-rendering="crispEdges"/><rect fill="#121212" x="170.8" y="196.7" width="1537.2" height="24.65" shape-rendering="crispEdges"/><rect fill="#121212" x="0" y="221.1" width="36.6" height="24.65" shape-rendering="crispEdges"/><rect fill="#121212" x="36.6" y="221.1" width="158.6" height="24.65" shape-rendering="crispEdges"/><rect fill="#121212" x="195.2" y="221.1" width="1512.8" height="24.65" shape-rendering="crispEdges"/><rect fill="#121212" x="0" y="245.5" width="36.6" height="24.65" shape-rendering="crispEdges"/><rect fill="#121212" x="36.6" y="245.5" width="439.2" height="24.65" shape-rendering="crispEdges"/><rect fill="#121212" x="475.8" y="245.5" width="1232.2" height="24.65" shape-rendering="crispEdges"/><rect fill="#121212" x="0" y="269.9" width="36.6" height="24.65" shape-rendering="crispEdges"/><rect fill="#121212" x="36.6" y="269.9" width="475.8" height="24.65" shape-rendering="crispEdges"/><rect fill="#121212" x="512.4" y="269.9" width="1195.6" height="24.65" shape-rendering="crispEdges"/><rect fill="#121212" x="0" y="294.3" width="36.6" height="24.65" shape-rendering="crispEdges"/><rect fill="#121212" x="36.6" y="294.3" width="439.2" height="24.65" shape-rendering="crispEdges"/><rect fill="#121212" x="475.8" y="294.3" width="1232.2" height="24.65" shape-rendering="crispEdges"/><rect fill="#121212" x="0" y="318.7" width="36.6" height="24.65" shape-rendering="crispEdges"/><rect fill="#121212" x="36.6" y="318.7" width="1012.6" height="24.65" shape-rendering="crispEdges"/><rect fill="#121212" x="1049.2" y="318.7" width="658.8" height="24.65" shape-rendering="crispEdges"/><rect fill="#121212" x="0" y="343.1" width="0" height="24.65" shape-rendering="crispEdges"/><rect fill="#121212" x="0" y="343.1" width="1708" height="24.65" shape-rendering="crispEdges"/><rect fill="#121212" x="0" y="367.5" width="353.8" height="24.65" shape-rendering="crispEdges"/><rect fill="#121212" x="353.8" y="367.5" width="1354.2" height="24.65" shape-rendering="crispEdges"/><rect fill="#121212" x="0" y="391.9" width="36.6" height="24.65" shape-rendering="crispEdges"/><rect fill="#121212" x="36.6" y="391.9" width="219.6" height="24.65" shape-rendering="crispEdges"/><rect fill="#121212" x="256.2" y="391.9" width="12.2" height="24.65" shape-rendering="crispEdges"/><rect fill="#121212" x="268.4" y="391.9" width="97.6" height="24.65" shape-rendering="crispEdges"/><rect fill="#121212" x="366" y="391.9" width="12.2" height="24.65" shape-rendering="crispEdges"/><rect fill="#121212" x="378.2" y="391.9" width="256.2" height="24.65" shape-rendering="crispEdges"/><rect fill="#121212" x="634.4" y="391.9" width="878.4" height="24.65" shape-rendering="crispEdges"/><rect fill="#121212" x="1512.8" y="391.9" width="195.2" height="24.65" shape-rendering="crispEdges"/><rect fill="#121212" x="0" y="416.3" width="36.6" height="24.65" shape-rendering="crispEdges"/><rect fill="#121212" x="36.6" y="416.3" width="219.6" height="24.65" shape-rendering="crispEdges"/><rect fill="#121212" x="256.2" y="416.3" width="12.2" height="24.65" shape-rendering="crispEdges"/><rect fill="#121212" x="268.4" y="416.3" width="97.6" height="24.65" shape-rendering="crispEdges"/><rect fill="#121212" x="366" y="416.3" width="12.2" height="24.65" shape-rendering="crispEdges"/><rect fill="#121212" x="378.2" y="416.3" width="256.2" height="24.65" shape-rendering="crispEdges"/><rect fill="#121212" x="634.4" y="416.3" width="878.4" height="24.65" shape-rendering="crispEdges"/><rect fill="#121212" x="1512.8" y="416.3" width="195.2" height="24.65" shape-rendering="crispEdges"/><rect fill="#121212" x="0" y="440.7" width="36.6" height="24.65" shape-rendering="crispEdges"/><rect fill="#121212" x="36.6" y="440.7" width="219.6" height="24.65" shape-rendering="crispEdges"/><rect fill="#121212" x="256.2" y="440.7" width="12.2" height="24.65" shape-rendering="crispEdges"/><rect fill="#121212" x="268.4" y="440.7" width="97.6" height="24.65" shape-rendering="crispEdges"/><rect fill="#121212" x="366" y="440.7" width="12.2" height="24.65" shape-rendering="crispEdges"/><rect fill="#121212" x="378.2" y="440.7" width="256.2" height="24.65" shape-rendering="crispEdges"/><rect fill="#121212" x="634.4" y="440.7" width="878.4" height="24.65" shape-rendering="crispEdges"/><rect fill="#121212" x="1512.8" y="440.7" width="195.2" height="24.65" shape-rendering="crispEdges"/><rect fill="#121212" x="0" y="465.1" width="0" height="24.65" shape-rendering="crispEdges"/><rect fill="#121212" x="0" y="465.1" width="1708" height="24.65" shape-rendering="crispEdges"/><rect fill="#121212" x="0" y="489.5" width="195.2" height="24.65" shape-rendering="crispEdges"/><rect fill="#121212" x="195.2" y="489.5" width="1512.8" height="24.65" shape-rendering="crispEdges"/><rect fill="#121212" x="0" y="513.9" width="36.6" height="24.65" shape-rendering="crispEdges"/><rect fill="#121212" x="36.6" y="513.9" width="488" height="24.65" shape-rendering="crispEdges"/><rect fill="#121212" x="524.6" y="513.9" width="1183.4" height="24.65" shape-rendering="crispEdges"/><rect fill="#121212" x="0" y="538.3" width="36.6" height="24.65" shape-rendering="crispEdges"/><rect fill="#121212" x="36.6" y="538.3" width="1134.6" height="24.65" shape-rendering="crispEdges"/><rect fill="#121212" x="1171.2" y="538.3" width="536.8" height="24.65" shape-rendering="crispEdges"/><rect fill="#121212" x="0" y="562.7" width="0" height="24.65" shape-rendering="crispEdges"/><rect fill="#121212" x="0" y="562.7" width="1708" height="24.65" shape-rendering="crispEdges"/><rect fill="#121212" x="0" y="587.1" width="36.6" height="24.65" shape-rendering="crispEdges"/><rect fill="#121212" x="36.6" y="587.1" width="158.6" height="24.65" shape-rendering="crispEdges"/><rect fill="#121212" x="195.2" y="587.1" width="1512.8" height="24.65" shape-rendering="crispEdges"/><rect fill="#121212" x="0" y="611.5" width="1708" height="24.65" shape-rendering="crispEdges"/><rect fill="#121212" x="0" y="635.9" width="1708" height="24.65" shape-rendering="crispEdges"/><rect fill="#121212" x="0" y="660.3" width="1708" height="24.65" shape-rendering="crispEdges"/><rect fill="#121212" x="0" y="684.7" width="1708" height="24.65" shape-rendering="crispEdges"/><rect fill="#121212" x="0" y="709.1" width="1708" height="24.65" shape-rendering="crispEdges"/><rect fill="#121212" x="0" y="733.5" width="1708" height="24.65" shape-rendering="crispEdges"/><rect fill="#121212" x="0" y="757.9" width="1708" height="24.65" shape-rendering="crispEdges"/><rect fill="#121212" x="0" y="782.3" width="1708" height="24.65" shape-rendering="crispEdges"/><rect fill="#121212" x="0" y="806.7" width="1708" height="24.65" shape-rendering="crispEdges"/><rect fill="#121212" x="0" y="831.1" width="1708" height="24.65" shape-rendering="crispEdges"/><rect fill="#121212" x="0" y="855.5" width="1708" height="24.65" shape-rendering="crispEdges"/><rect fill="#121212" x="0" y="879.9" width="1708" height="24.65" shape-rendering="crispEdges"/><rect fill="#121212" x="0" y="904.3" width="1708" height="24.65" shape-rendering="crispEdges"/><rect fill="#121212" x="0" y="928.7" width="1708" height="24.65" shape-rendering="crispEdges"/><rect fill="#242f38" x="0" y="953.1" width="61" height="24.65" shape-rendering="crispEdges"/><rect fill="#242f38" x="61" y="953.1" width="61" height="24.65" shape-rendering="crispEdges"/><rect fill="#242f38" x="122" y="953.1" width="36.6" height="24.65" shape-rendering="crispEdges"/><rect fill="#242f38" x="158.6" y="953.1" width="85.4" height="24.65" shape-rendering="crispEdges"/><rect fill="#242f38" x="244" y="953.1" width="36.6" height="24.65" shape-rendering="crispEdges"/><rect fill="#242f38" x="280.6" y="953.1" width="97.6" height="24.65" shape-rendering="crispEdges"/><rect fill="#242f38" x="378.2" y="953.1" width="36.6" height="24.65" shape-rendering="crispEdges"/><rect fill="#242f38" x="414.8" y="953.1" width="146.4" height="24.65" shape-rendering="crispEdges"/><rect fill="#242f38" x="561.2" y="953.1" width="1000.4" height="24.65" shape-rendering="crispEdges"/><rect fill="#242f38" x="1561.6" y="953.1" width="12.2" height="24.65" shape-rendering="crispEdges"/><rect fill="#242f38" x="1573.8" y="953.1" width="24.4" height="24.65" shape-rendering="crispEdges"/><rect fill="#242f38" x="1598.2" y="953.1" width="97.6" height="24.65" shape-rendering="crispEdges"/><rect fill="#242f38" x="1695.8" y="953.1" width="12.2" height="24.65" shape-rendering="crispEdges"/>
    <g class="terminal-1695329350-matrix">
    <text class="terminal-1695329350-r2" x="12.2" y="20" textLength="12.2" clip-path="url(#terminal-1695329350-line-0)">⭘</text><text class="terminal-1695329350-r2" x="707.6" y="20" textLength="268.4" clip-path="url(#terminal-1695329350-line-0)">Public&#160;Alpha&#160;—&#160;Scanner</text><text class="terminal-1695329350-r1" x="1708" y="20" textLength="12.2" clip-path="url(#terminal-1695329350-line-0)">
</text><text class="terminal-1695329350-r3" x="24.4" y="44.4" textLength="48.8" clip-path="url(#terminal-1695329350-line-1)">HOOD</text><text class="terminal-1695329350-r4" x="109.8" y="44.4" textLength="85.4" clip-path="url(#terminal-1695329350-line-1)">organic</text><text class="terminal-1695329350-r5" x="231.8" y="44.4" textLength="231.8" clip-path="url(#terminal-1695329350-line-1)">organic&#160;score&#160;0.888</text><text class="terminal-1695329350-r6" x="500.2" y="44.4" textLength="207.4" clip-path="url(#terminal-1695329350-line-1)">·&#160;confidence&#160;0.22</text><text class="terminal-1695329350-r1" x="1708" y="44.4" textLength="12.2" clip-path="url(#terminal-1695329350-line-1)">
</text><text class="terminal-1695329350-r1" x="1708" y="68.8" textLength="12.2" clip-path="url(#terminal-1695329350-line-2)">
</text><text class="terminal-1695329350-r7" x="0" y="93.2" textLength="61" clip-path="url(#terminal-1695329350-line-3)">&#160;&#160;Why</text><text class="terminal-1695329350-r1" x="1708" y="93.2" textLength="12.2" clip-path="url(#terminal-1695329350-line-3)">
</text><text class="terminal-1695329350-r2" x="0" y="117.6" textLength="695.4" clip-path="url(#terminal-1695329350-line-4)">&#160;&#160;&#160;•&#160;calls&#160;spread&#160;out&#160;(max&#160;2&#160;in&#160;120&#160;min)&#160;→&#160;organic&#160;timing</text><text class="terminal-1695329350-r1" x="1708" y="117.6" textLength="12.2" clip-path="url(#terminal-1695329350-line-4)">
</text><text class="terminal-1695329350-r2" x="0" y="142" textLength="707.6" clip-path="url(#terminal-1695329350-line-5)">&#160;&#160;&#160;•&#160;varied&#160;phrasing&#160;across&#160;authors&#160;(max&#160;similarity&#160;0.178)</text><text class="terminal-1695329350-r1" x="1708" y="142" textLength="12.2" clip-path="url(#terminal-1695329350-line-5)">
</text><text class="terminal-1695329350-r2" x="0" y="166.4" textLength="280.6" clip-path="url(#terminal-1695329350-line-6)">&#160;&#160;&#160;•&#160;5&#160;distinct&#160;authors</text><text class="terminal-1695329350-r1" x="1708" y="166.4" textLength="12.2" clip-path="url(#terminal-1695329350-line-6)">
</text><text class="terminal-1695329350-r1" x="1708" y="190.8" textLength="12.2" clip-path="url(#terminal-1695329350-line-7)">
</text><text class="terminal-1695329350-r7" x="0" y="215.2" textLength="170.8" clip-path="url(#terminal-1695329350-line-8)">&#160;&#160;Confirmation</text><text class="terminal-1695329350-r1" x="1708" y="215.2" textLength="12.2" clip-path="url(#terminal-1695329350-line-8)">
</text><text class="terminal-1695329350-r8" x="36.6" y="239.6" textLength="158.6" clip-path="url(#terminal-1695329350-line-9)">NOT&#160;confirmed</text><text class="terminal-1695329350-r1" x="1708" y="239.6" textLength="12.2" clip-path="url(#terminal-1695329350-line-9)">
</text><text class="terminal-1695329350-r5" x="36.6" y="264" textLength="439.2" clip-path="url(#terminal-1695329350-line-10)">•&#160;24h&#160;market&#160;volume&#160;$5,045&#160;&lt;&#160;$25,000</text><text class="terminal-1695329350-r1" x="1708" y="264" textLength="12.2" clip-path="url(#terminal-1695329350-line-10)">
</text><text class="terminal-1695329350-r5" x="36.6" y="288.4" textLength="475.8" clip-path="url(#terminal-1695329350-line-11)">•&#160;buy/sell&#160;split&#160;not&#160;exposed&#160;by&#160;CMC&#160;DEX</text><text class="terminal-1695329350-r1" x="1708" y="288.4" textLength="12.2" clip-path="url(#terminal-1695329350-line-11)">
</text><text class="terminal-1695329350-r5" x="36.6" y="312.8" textLength="439.2" clip-path="url(#terminal-1695329350-line-12)">•&#160;holder&#160;data&#160;not&#160;exposed&#160;by&#160;CMC&#160;DEX</text><text class="terminal-1695329350-r1" x="1708" y="312.8" textLength="12.2" clip-path="url(#terminal-1695329350-line-12)">
</text><text class="terminal-1695329350-r5" x="36.6" y="337.2" textLength="1012.6" clip-path="url(#terminal-1695329350-line-13)">•&#160;source:&#160;CMC&#160;aggregated&#160;on-chain&#160;DEX&#160;volume&#160;(pool-level&#160;split&#160;unavailable&#160;on&#160;tier)</text><text class="terminal-1695329350-r1" x="1708" y="337.2" textLength="12.2" clip-path="url(#terminal-1695329350-line-13)">
</text><text class="terminal-1695329350-r1" x="1708" y="361.6" textLength="12.2" clip-path="url(#terminal-1695329350-line-14)">
</text><text class="terminal-1695329350-r7" x="0" y="386" textLength="353.8" clip-path="url(#terminal-1695329350-line-15)">&#160;&#160;Social&#160;evidence&#160;—&#160;the&#160;calls</text><text class="terminal-1695329350-r1" x="1708" y="386" textLength="12.2" clip-path="url(#terminal-1695329350-line-15)">
</text><text class="terminal-1695329350-r9" x="36.6" y="410.4" textLength="219.6" clip-path="url(#terminal-1695329350-line-16)">jason&#160;&#160;&#160;&#160;&#160;&#160;&#160;&#160;&#160;&#160;&#160;&#160;&#160;</text><text class="terminal-1695329350-r10" x="268.4" y="410.4" textLength="97.6" clip-path="url(#terminal-1695329350-line-16)">bullish&#160;</text><text class="terminal-1695329350-r5" x="378.2" y="410.4" textLength="256.2" clip-path="url(#terminal-1695329350-line-16)">2026-01-23&#160;&#160;&#160;&#160;&#160;&#160;&#160;&#160;&#160;&#160;&#160;</text><text class="terminal-1695329350-r2" x="634.4" y="410.4" textLength="878.4" clip-path="url(#terminal-1695329350-line-16)">&#160;&#160;Prediction&#160;markets&#160;and&#160;on-chain&#160;trading&#160;exploding;&#160;Robinhood&#160;plugged&#160;i</text><text class="terminal-1695329350-r1" x="1708" y="410.4" textLength="12.2" clip-path="url(#terminal-1695329350-line-16)">
</text><text class="terminal-1695329350-r9" x="36.6" y="434.8" textLength="219.6" clip-path="url(#terminal-1695329350-line-17)">notthreadguy&#160;&#160;&#160;&#160;&#160;&#160;</text><text class="terminal-1695329350-r10" x="268.4" y="434.8" textLength="97.6" clip-path="url(#terminal-1695329350-line-17)">bullish&#160;</text><text class="terminal-1695329350-r5" x="378.2" y="434.8" textLength="256.2" clip-path="url(#terminal-1695329350-line-17)">2026-06-10&#160;&#160;&#160;&#160;&#160;&#160;&#160;&#160;&#160;&#160;&#160;</text><text class="terminal-1695329350-r2" x="634.4" y="434.8" textLength="878.4" clip-path="url(#terminal-1695329350-line-17)">&#160;&#160;Robinhood&#160;gets&#160;fresh&#160;institutional&#160;buying&#160;as&#160;Meyer&#160;Malka&#160;adds&#160;$55M,&#160;si</text><text class="terminal-1695329350-r1" x="1708" y="434.8" textLength="12.2" clip-path="url(#terminal-1695329350-line-17)">
</text><text class="terminal-1695329350-r9" x="36.6" y="459.2" textLength="219.6" clip-path="url(#terminal-1695329350-line-18)">notthreadguy&#160;&#160;&#160;&#160;&#160;&#160;</text><text class="terminal-1695329350-r10" x="268.4" y="459.2" textLength="97.6" clip-path="url(#terminal-1695329350-line-18)">bullish&#160;</text><text class="terminal-1695329350-r5" x="378.2" y="459.2" textLength="256.2" clip-path="url(#terminal-1695329350-line-18)">2026-05-29&#160;&#160;&#160;&#160;&#160;&#160;&#160;&#160;&#160;&#160;&#160;</text><text class="terminal-1695329350-r2" x="634.4" y="459.2" textLength="878.4" clip-path="url(#terminal-1695329350-line-18)">&#160;&#160;ThreadGuy&#160;thinks&#160;Robinhood&#160;looks&#160;very&#160;strong,&#160;citing&#160;back-to-back&#160;big&#160;</text><text class="terminal-1695329350-r1" x="1708" y="459.2" textLength="12.2" clip-path="url(#terminal-1695329350-line-18)">
</text><text class="terminal-1695329350-r1" x="1708" y="483.6" textLength="12.2" clip-path="url(#terminal-1695329350-line-19)">
</text><text class="terminal-1695329350-r7" x="0" y="508" textLength="195.2" clip-path="url(#terminal-1695329350-line-20)">&#160;&#160;Market&#160;context</text><text class="terminal-1695329350-r1" x="1708" y="508" textLength="12.2" clip-path="url(#terminal-1695329350-line-20)">
</text><text class="terminal-1695329350-r5" x="36.6" y="532.4" textLength="488" clip-path="url(#terminal-1695329350-line-21)">regime&#160;risk_off&#160;(F&amp;G&#160;21,&#160;BTC&#160;dom&#160;58.24%)</text><text class="terminal-1695329350-r1" x="1708" y="532.4" textLength="12.2" clip-path="url(#terminal-1695329350-line-21)">
</text><text class="terminal-1695329350-r5" x="36.6" y="556.8" textLength="1134.6" clip-path="url(#terminal-1695329350-line-22)">heating:&#160;Insurance&#160;&#160;·&#160;&#160;topics:&#160;BTC&#160;Price&#160;Analysis,&#160;Macro&#160;Insights,&#160;Altcoin&#160;Season,&#160;Meme&#160;Alpha</text><text class="terminal-1695329350-r1" x="1708" y="556.8" textLength="12.2" clip-path="url(#terminal-1695329350-line-22)">
</text><text class="terminal-1695329350-r1" x="1708" y="581.2" textLength="12.2" clip-path="url(#terminal-1695329350-line-23)">
</text><text class="terminal-1695329350-r5" x="36.6" y="605.6" textLength="158.6" clip-path="url(#terminal-1695329350-line-24)">[escape]&#160;back</text><text class="terminal-1695329350-r1" x="1708" y="605.6" textLength="12.2" clip-path="url(#terminal-1695329350-line-24)">
</text><text class="terminal-1695329350-r1" x="1708" y="630" textLength="12.2" clip-path="url(#terminal-1695329350-line-25)">
</text><text class="terminal-1695329350-r1" x="1708" y="654.4" textLength="12.2" clip-path="url(#terminal-1695329350-line-26)">
</text><text class="terminal-1695329350-r1" x="1708" y="678.8" textLength="12.2" clip-path="url(#terminal-1695329350-line-27)">
</text><text class="terminal-1695329350-r1" x="1708" y="703.2" textLength="12.2" clip-path="url(#terminal-1695329350-line-28)">
</text><text class="terminal-1695329350-r1" x="1708" y="727.6" textLength="12.2" clip-path="url(#terminal-1695329350-line-29)">
</text><text class="terminal-1695329350-r1" x="1708" y="752" textLength="12.2" clip-path="url(#terminal-1695329350-line-30)">
</text><text class="terminal-1695329350-r1" x="1708" y="776.4" textLength="12.2" clip-path="url(#terminal-1695329350-line-31)">
</text><text class="terminal-1695329350-r1" x="1708" y="800.8" textLength="12.2" clip-path="url(#terminal-1695329350-line-32)">
</text><text class="terminal-1695329350-r1" x="1708" y="825.2" textLength="12.2" clip-path="url(#terminal-1695329350-line-33)">
</text><text class="terminal-1695329350-r1" x="1708" y="849.6" textLength="12.2" clip-path="url(#terminal-1695329350-line-34)">
</text><text class="terminal-1695329350-r1" x="1708" y="874" textLength="12.2" clip-path="url(#terminal-1695329350-line-35)">
</text><text class="terminal-1695329350-r1" x="1708" y="898.4" textLength="12.2" clip-path="url(#terminal-1695329350-line-36)">
</text><text class="terminal-1695329350-r1" x="1708" y="922.8" textLength="12.2" clip-path="url(#terminal-1695329350-line-37)">
</text><text class="terminal-1695329350-r1" x="1708" y="947.2" textLength="12.2" clip-path="url(#terminal-1695329350-line-38)">
</text><text class="terminal-1695329350-r11" x="0" y="971.6" textLength="61" clip-path="url(#terminal-1695329350-line-39)">&#160;esc&#160;</text><text class="terminal-1695329350-r2" x="61" y="971.6" textLength="61" clip-path="url(#terminal-1695329350-line-39)">Back&#160;</text><text class="terminal-1695329350-r11" x="122" y="971.6" textLength="36.6" clip-path="url(#terminal-1695329350-line-39)">&#160;r&#160;</text><text class="terminal-1695329350-r2" x="158.6" y="971.6" textLength="85.4" clip-path="url(#terminal-1695329350-line-39)">Rescan&#160;</text><text class="terminal-1695329350-r11" x="244" y="971.6" textLength="36.6" clip-path="url(#terminal-1695329350-line-39)">&#160;1&#160;</text><text class="terminal-1695329350-r2" x="280.6" y="971.6" textLength="97.6" clip-path="url(#terminal-1695329350-line-39)">Signals&#160;</text><text class="terminal-1695329350-r11" x="378.2" y="971.6" textLength="36.6" clip-path="url(#terminal-1695329350-line-39)">&#160;2&#160;</text><text class="terminal-1695329350-r2" x="414.8" y="971.6" textLength="146.4" clip-path="url(#terminal-1695329350-line-39)">Trade&#160;Ideas&#160;</text><text class="terminal-1695329350-r12" x="1561.6" y="971.6" textLength="12.2" clip-path="url(#terminal-1695329350-line-39)">▏</text><text class="terminal-1695329350-r11" x="1573.8" y="971.6" textLength="24.4" clip-path="url(#terminal-1695329350-line-39)">^p</text><text class="terminal-1695329350-r2" x="1598.2" y="971.6" textLength="97.6" clip-path="url(#terminal-1695329350-line-39)">&#160;palette</text>
    </g>
    </g>
</svg>
